<!--
  - Copyright 2016, European Community
  - Copyright 2023, gematik GmbH
  -
  - Licensed under the EUPL, Version 1.2 or - as soon they will be approved by the
  - European Commission – subsequent versions of the EUPL (the "Licence").
  - You may not use this work except in compliance with the Licence.
  -
  - You find a copy of the Licence in the "Licence" file or at
  - https://joinup.ec.europa.eu/collection/eupl/eupl-text-eupl-12
  -
  - Unless required by applicable law or agreed to in writing,
  - software distributed under the Licence is distributed on an "AS IS" basis,
  - WITHOUT WARRANTIES OR CONDITIONS OF ANY KIND, either expressed or implied.
  - In case of changes by gematik find details in the "Readme" file.
  -
  - See the Licence for the specific language governing permissions and limitations under the Licence.
  -->

<svg width="384" height="800" viewBox="0 0 384 800" fill="none" xmlns="http://www.w3.org/2000/svg">

  <g filter="url(#filter0_ii_3_32)">

    <path
      d="M348.753 0H40.1816C20.8517 0 5.18164 15.67 5.18164 35V765C5.18164 784.33 20.8517 800 40.1816 800H348.753C368.083 800 383.753 784.33 383.753 765V35C383.753 15.67 368.083 0 348.753 0Z"
      fill="#262E32"/>

    <path opacity="0.3"
      d="M188.005 694.794C189.17 696.185 190.961 697.186 193.408 697.483V699.458C190.357 699.291 188.128 698.115 186.649 696.453C185.083 694.692 184.329 692.349 184.374 689.984C184.462 685.389 187.554 680.825 193.408 680.429V682.529C189.188 682.747 186.639 686.165 186.4 689.644C186.276 691.459 186.773 693.323 188.005 694.794Z"
      stroke="white"/>

    <path opacity="0.3"
      d="M198.003 688.566H203.212V690.403H198.003H197.336L197.523 691.044C198.218 693.417 199.408 694.845 200.906 695.66C202.235 696.382 203.756 696.594 205.269 696.627V698.564C201.962 698.598 199.517 697.506 197.884 695.88C196.166 694.17 195.309 691.833 195.32 689.484C195.332 687.134 196.211 684.796 197.936 683.085C199.575 681.459 202.008 680.371 205.269 680.406V682.31C203.839 682.364 202.352 682.572 201.025 683.285C199.522 684.091 198.283 685.511 197.526 687.916L197.321 688.566H198.003Z"
      stroke="white"/>

    <path opacity="0.2" d="M112.793 721.512C111.988 721.512 111.355 721.797 110.895 722.367C110.434 722.938 110.203 723.725 110.203 724.729C110.203 725.779 110.424 726.574 110.865 727.113C111.311 727.652 111.953 727.922 112.793 727.922C113.156 727.922 113.508 727.887 113.848 727.816C114.188 727.742 114.541 727.648 114.908 727.535V728.736C114.236 728.99 113.475 729.117 112.623 729.117C111.369 729.117 110.406 728.738 109.734 727.98C109.062 727.219 108.727 726.131 108.727 724.717C108.727 723.826 108.889 723.047 109.213 722.379C109.541 721.711 110.014 721.199 110.631 720.844C111.248 720.488 111.973 720.311 112.805 720.311C113.68 720.311 114.488 720.494 115.23 720.861L114.727 722.027C114.438 721.891 114.131 721.771 113.807 721.67C113.486 721.564 113.148 721.512 112.793 721.512ZM119.438 729.117C118.43 729.117 117.641 728.824 117.07 728.238C116.504 727.648 116.221 726.838 116.221 725.807C116.221 724.748 116.484 723.916 117.012 723.311C117.539 722.705 118.264 722.402 119.186 722.402C120.041 722.402 120.717 722.662 121.213 723.182C121.709 723.701 121.957 724.416 121.957 725.326V726.07H117.639C117.658 726.699 117.828 727.184 118.148 727.523C118.469 727.859 118.92 728.027 119.502 728.027C119.885 728.027 120.24 727.992 120.568 727.922C120.9 727.848 121.256 727.727 121.635 727.559V728.678C121.299 728.838 120.959 728.951 120.615 729.018C120.271 729.084 119.879 729.117 119.438 729.117ZM119.186 723.445C118.748 723.445 118.396 723.584 118.131 723.861C117.869 724.139 117.713 724.543 117.662 725.074H120.604C120.596 724.539 120.467 724.135 120.217 723.861C119.967 723.584 119.623 723.445 119.186 723.445ZM126.135 729.117C125.154 729.117 124.408 728.832 123.896 728.262C123.389 727.688 123.135 726.865 123.135 725.795C123.135 724.705 123.4 723.867 123.932 723.281C124.467 722.695 125.238 722.402 126.246 722.402C126.93 722.402 127.545 722.529 128.092 722.783L127.676 723.891C127.094 723.664 126.613 723.551 126.234 723.551C125.113 723.551 124.553 724.295 124.553 725.783C124.553 726.51 124.691 727.057 124.969 727.424C125.25 727.787 125.66 727.969 126.199 727.969C126.812 727.969 127.393 727.816 127.939 727.512V728.713C127.693 728.857 127.43 728.961 127.148 729.023C126.871 729.086 126.533 729.117 126.135 729.117ZM130.84 729H129.463V722.52H130.84V729ZM129.381 720.803C129.381 720.557 129.447 720.367 129.58 720.234C129.717 720.102 129.91 720.035 130.16 720.035C130.402

720.035 130.59 720.102 130.723 720.234C130.859 720.367 130.928 720.557 130.928 720.803C130.928 721.037 130.859 721.223 130.723 721.359C130.59 721.492 130.402 721.559 130.16 721.559C129.91 721.559 129.717 721.492 129.58 721.359C129.447 721.223 129.381 721.037 129.381 720.803ZM141.633 729H140.25V725.016C140.25 724.516 140.148 724.143 139.945 723.896C139.746 723.65 139.428 723.527 138.99 723.527C138.408 723.527 137.982 723.699 137.713 724.043C137.443 724.387 137.309 724.963 137.309 725.771V729H135.932V722.52H137.01L137.203 723.369H137.273C137.469 723.061 137.746 722.822 138.105 722.654C138.465 722.486 138.863 722.402 139.301 722.402C140.855 722.402 141.633 723.193 141.633 724.775V729ZM144.703 720.434L144.463 723.527H143.584L143.344 720.434H144.703ZM149.297 729.117C148.289 729.117 147.5 728.824 146.93 728.238C146.363 727.648 146.08 726.838 146.08 725.807C146.08 724.748 146.344 723.916 146.871 723.311C147.398 722.705 148.123 722.402 149.045 722.402C149.9 722.402 150.576 722.662 151.072 723.182C151.568 723.701 151.816 724.416 151.816 725.326V726.07H147.498C147.518 726.699 147.688 727.184 148.008 727.523C148.328 727.859 148.779 728.027 149.361 728.027C149.744 728.027 150.1 727.992 150.428 727.922C150.76 727.848 151.115 727.727 151.494 727.559V728.678C151.158 728.838 150.818 728.951 150.475 729.018C150.131 729.084 149.738 729.117 149.297 729.117ZM149.045 723.445C148.607 723.445 148.256 723.584 147.99 723.861C147.729 724.139 147.572 724.543 147.521 725.074H150.463C150.455 724.539 150.326 724.135 150.076 723.861C149.826 723.584 149.482 723.445 149.045 723.445ZM157.734 727.154C157.734 727.787 157.504 728.273 157.043 728.613C156.582 728.949 155.922 729.117 155.062 729.117C154.199 729.117 153.506 728.986 152.982 728.725V727.535C153.744 727.887 154.453 728.062 155.109 728.062C155.957 728.062 156.381 727.807 156.381 727.295C156.381 727.131 156.334 726.994 156.24 726.885C156.146 726.775 155.992 726.662 155.777 726.545C155.562 726.428 155.264 726.295 154.881 726.146C154.135 725.857 153.629 725.568 153.363 725.279C153.102 724.99 152.971 724.615 152.971 724.154C152.971 723.6 153.193 723.17 153.639 722.865C154.088 722.557 154.697 722.402 155.467 722.402C156.229 722.402 156.949 722.557 157.629 722.865L157.184 723.902C156.484 723.613 155.896 723.469 155.42 723.469C154.693 723.469 154.33 723.676 154.33 724.09C154.33 724.293 154.424 724.465 154.611 724.605C154.803 724.746 155.217 724.939 155.854 725.186C156.389 725.393 156.777 725.582 157.02 725.754C157.262 725.926 157.441 726.125 157.559 726.352C157.676 726.574 157.734 726.842 157.734 727.154ZM161.643 728.004C161.979 728.004 162.314 727.951 162.65 727.846V728.883C162.498 728.949 162.301 729.004 162.059 729.047C161.82 729.094 161.572 729.117 161.314 729.117C160.01 729.117 159.357 728.43 159.357 727.055V723.562H158.473V722.953L159.422 722.449L159.891 721.078H160.74V722.52H162.586V723.562H160.74V727.031C160.74 727.363 160.822 727.609 160.986 727.77C161.154 727.926 161.373 728.004 161.643 728.004ZM170.355 729.117C169.535 729.117 168.898 728.822 168.445 728.232H168.363C168.418 728.779 168.445 729.111 168.445 729.229V731.883H167.068V722.52H168.182C168.213 722.641 168.277 722.93 168.375 723.387H168.445C168.875 722.73 169.52 722.402 170.379 722.402C171.188 722.402 171.816 722.695 172.266 723.281C172.719 723.867 172.945 724.689 172.945 725.748C172.945 726.807 172.715 727.633 172.254 728.227C171.797 728.82 171.164 729.117 170.355 729.117ZM170.021 723.527C169.475 723.527 169.074 723.688 168.82 724.008C168.57 724.328 168.445 724.84 168.445 725.543V725.748C168.445 726.537 168.57 727.109 168.82 727.465C169.07 727.816 169.479 727.992 170.045 727.992C170.521 727.992 170.889 727.797 171.146

727.406C171.404 727.016 171.533 726.459 171.533 725.736C171.533 725.01 171.404 724.461 171.146 724.09C170.893 723.715 170.518 723.527 170.021 723.527ZM178.6 729L178.324 728.098H178.277C177.965 728.492 177.65 728.762 177.334 728.906C177.018 729.047 176.611 729.117 176.115 729.117C175.479 729.117 174.98 728.945 174.621 728.602C174.266 728.258 174.088 727.771 174.088 727.143C174.088 726.475 174.336 725.971 174.832 725.631C175.328 725.291 176.084 725.105 177.1 725.074L178.219 725.039V724.693C178.219 724.279 178.121 723.971 177.926 723.768C177.734 723.561 177.436 723.457 177.029 723.457C176.697 723.457 176.379 723.506 176.074 723.604C175.77 723.701 175.477 723.816 175.195 723.949L174.75 722.965C175.102 722.781 175.486 722.643 175.904 722.549C176.322 722.451 176.717 722.402 177.088 722.402C177.912 722.402 178.533 722.582 178.951 722.941C179.373 723.301 179.584 723.865 179.584 724.635V729H178.6ZM176.549 728.062C177.049 728.062 177.449 727.924 177.75 727.646C178.055 727.365 178.207 726.973 178.207 726.469V725.906L177.375 725.941C176.727 725.965 176.254 726.074 175.957 726.27C175.664 726.461 175.518 726.756 175.518 727.154C175.518 727.443 175.604 727.668 175.775 727.828C175.947 727.984 176.205 728.062 176.549 728.062ZM185.859 727.154C185.859 727.787 185.629 728.273 185.168 728.613C184.707 728.949 184.047 729.117 183.188 729.117C182.324 729.117 181.631 728.986 181.107 728.725V727.535C181.869 727.887 182.578 728.062 183.234 728.062C184.082 728.062 184.506 727.807 184.506 727.295C184.506 727.131 184.459 726.994 184.365 726.885C184.271 726.775 184.117 726.662 183.902 726.545C183.688 726.428 183.389 726.295 183.006 726.146C182.26 725.857 181.754 725.568 181.488 725.279C181.227 724.99 181.096 724.615 181.096 724.154C181.096 723.6 181.318 723.17 181.764 722.865C182.213 722.557 182.822 722.402 183.592 722.402C184.354 722.402 185.074 722.557 185.754 722.865L185.309 723.902C184.609 723.613 184.021 723.469 183.545 723.469C182.818 723.469 182.455 723.676 182.455 724.09C182.455 724.293 182.549 724.465 182.736 724.605C182.928 724.746 183.342 724.939 183.979 725.186C184.514 725.393 184.902 725.582 185.145 725.754C185.387 725.926 185.566 726.125 185.684 726.352C185.801 726.574 185.859 726.842 185.859 727.154ZM195.041 729L194.848 728.15H194.777C194.586 728.451 194.312 728.688 193.957 728.859C193.605 729.031 193.203 729.117 192.75 729.117C191.965 729.117 191.379 728.922 190.992 728.531C190.605 728.141 190.412 727.549 190.412 726.756V722.52H191.801V726.516C191.801 727.012 191.902 727.385 192.105 727.635C192.309 727.881 192.627 728.004 193.061 728.004C193.639 728.004 194.062 727.832 194.332 727.488C194.605 727.141 194.742 726.561 194.742 725.748V722.52H196.125V729H195.041ZM203.789 729H202.406V725.016C202.406 724.516 202.305 724.143 202.102 723.896C201.902 723.65 201.584 723.527 201.146 723.527C200.564 723.527 200.139 723.699 199.869 724.043C199.6 724.387 199.465 724.963 199.465 725.771V729H198.088V722.52H199.166L199.359 723.369H199.43C199.625 723.061 199.902 722.822 200.262 722.654C200.621 722.486 201.02 722.402 201.457 722.402C203.012 722.402 203.789 723.193 203.789 724.775V729ZM213.176 727.154C213.176 727.787 212.945 728.273 212.484 728.613C212.023 728.949 211.363 729.117 210.504 729.117C209.641 729.117 208.947 728.986 208.424 728.725V727.535C209.186 727.887 209.895 728.062 210.551 728.062C211.398 728.062 211.822 727.807 211.822 727.295C211.822 727.131 211.775 726.994 211.682 726.885C211.588 726.775 211.434 726.662 211.219 726.545C211.004 726.428 210.705 726.295 210.322 726.146C209.576 725.857 209.07 725.568 208.805 725.279C208.543 724.99 208.412 724.615 208.412 724.154C208.412 723.6 208.635 723.17

209.08 722.865C209.529 722.557 210.139 722.402 210.908 722.402C211.67 722.402 212.391 722.557 213.07 722.865L212.625 723.902C211.926 723.613 211.338 723.469 210.861 723.469C210.135 723.469 209.771 723.676 209.771 724.09C209.771 724.293 209.865 724.465 210.053 724.605C210.244 724.746 210.658 724.939 211.295 725.186C211.83 725.393 212.219 725.582 212.461 725.754C212.703 725.926 212.883 726.125 213 726.352C213.117 726.574 213.176 726.842 213.176 727.154ZM220.131 729H218.748V725.004C218.748 724.508 218.654 724.139 218.467 723.896C218.279 723.65 217.986 723.527 217.588 723.527C217.057 723.527 216.666 723.701 216.416 724.049C216.17 724.393 216.047 724.967 216.047 725.771V729H214.67V722.52H215.748L215.941 723.369H216.012C216.191 723.061 216.451 722.822 216.791 722.654C217.135 722.486 217.512 722.402 217.922 722.402C218.918 722.402 219.578 722.742 219.902 723.422H219.996C220.188 723.102 220.457 722.852 220.805 722.672C221.152 722.492 221.551 722.402 222 722.402C222.773 722.402 223.336 722.598 223.688 722.988C224.043 723.379 224.221 723.975 224.221 724.775V729H222.844V725.004C222.844 724.508 222.748 724.139 222.557 723.896C222.369 723.65 222.076 723.527 221.678 723.527C221.143 723.527 220.75 723.695 220.5 724.031C220.254 724.363 220.131 724.875 220.131 725.566V729ZM230.197 729L229.922 728.098H229.875C229.562 728.492 229.248 728.762 228.932 728.906C228.615 729.047 228.209 729.117 227.713 729.117C227.076 729.117 226.578 728.945 226.219 728.602C225.863 728.258 225.686 727.771 225.686 727.143C225.686 726.475 225.934 725.971 226.43 725.631C226.926 725.291 227.682 725.105 228.697 725.074L229.816 725.039V724.693C229.816 724.279 229.719 723.971 229.523 723.768C229.332 723.561 229.033 723.457 228.627 723.457C228.295 723.457 227.977 723.506 227.672 723.604C227.367 723.701 227.074 723.816 226.793 723.949L226.348 722.965C226.699 722.781 227.084 722.643 227.502 722.549C227.92 722.451 228.314 722.402 228.686 722.402C229.51 722.402 230.131 722.582 230.549 722.941C230.971 723.301 231.182 723.865 231.182 724.635V729H230.197ZM228.146 728.062C228.646 728.062 229.047 727.924 229.348 727.646C229.652 727.365 229.805 726.973 229.805 726.469V725.906L228.973 725.941C228.324 725.965 227.852 726.074 227.555 726.27C227.262 726.461 227.115 726.756 227.115 727.154C227.115 727.443 227.201 727.668 227.373 727.828C227.545 727.984 227.803 728.062 228.146 728.062ZM236.391 722.402C236.668 722.402 236.896 722.422 237.076 722.461L236.941 723.744C236.746 723.697 236.543 723.674 236.332 723.674C235.781 723.674 235.334 723.854 234.99 724.213C234.65 724.572 234.48 725.039 234.48 725.613V729H233.104V722.52H234.182L234.363 723.662H234.434C234.648 723.275 234.928 722.969 235.271 722.742C235.619 722.516 235.992 722.402 236.391 722.402ZM240.697 728.004C241.033 728.004 241.369 727.951 241.705 727.846V728.883C241.553 728.949 241.355 729.004 241.113 729.047C240.875 729.094 240.627 729.117 240.369 729.117C239.064 729.117 238.412 728.43 238.412 727.055V723.562H237.527V722.953L238.477 722.449L238.945 721.078H239.795V722.52H241.641V723.562H239.795V727.031C239.795 727.363 239.877 727.609 240.041 727.77C240.209 727.926 240.428 728.004 240.697 728.004ZM246.293 729.117C245.473 729.117 244.836 728.822 244.383 728.232H244.301C244.355 728.779 244.383 729.111 244.383 729.229V731.883H243.006V722.52H244.119C244.15 722.641 244.215 722.93 244.312 723.387H244.383C244.812 722.73 245.457 722.402 246.316 722.402C247.125 722.402 247.754 722.695 248.203 723.281C248.656 723.867 248.883 724.689 248.883 725.748C248.883 726.807 248.652 727.633 248.191 728.227C247.734 728.82 247.102 729.117 246.293 729.117ZM245.959 723.527C245.412 723.527 245.012

723.688 244.758 724.008C244.508 724.328 244.383 724.84 244.383 725.543V725.748C244.383 726.537 244.508 727.109 244.758 727.465C245.008 727.816 245.416 727.992 245.982 727.992C246.459 727.992 246.826 727.797 247.084 727.406C247.342 727.016 247.471 726.459 247.471 725.736C247.471 725.01 247.342 724.461 247.084 724.09C246.83 723.715 246.455 723.527 245.959 723.527ZM256.184 729H254.801V725.016C254.801 724.516 254.699 724.143 254.496 723.896C254.297 723.65 253.979 723.527 253.541 723.527C252.963 723.527 252.537 723.701 252.264 724.049C251.994 724.393 251.859 724.971 251.859 725.783V729H250.482V719.883H251.859V722.197C251.859 722.568 251.836 722.965 251.789 723.387H251.877C252.064 723.074 252.324 722.832 252.656 722.66C252.992 722.488 253.383 722.402 253.828 722.402C255.398 722.402 256.184 723.193 256.184 724.775V729ZM263.848 725.748C263.848 726.807 263.576 727.633 263.033 728.227C262.49 728.82 261.734 729.117 260.766 729.117C260.16 729.117 259.625 728.98 259.16 728.707C258.695 728.434 258.338 728.041 258.088 727.529C257.838 727.018 257.713 726.424 257.713 725.748C257.713 724.697 257.982 723.877 258.521 723.287C259.061 722.697 259.82 722.402 260.801 722.402C261.738 722.402 262.48 722.705 263.027 723.311C263.574 723.912 263.848 724.725 263.848 725.748ZM259.131 725.748C259.131 727.244 259.684 727.992 260.789 727.992C261.883 727.992 262.43 727.244 262.43 725.748C262.43 724.268 261.879 723.527 260.777 723.527C260.199 723.527 259.779 723.719 259.518 724.102C259.26 724.484 259.131 725.033 259.131 725.748ZM271.137 729H269.754V725.016C269.754 724.516 269.652 724.143 269.449 723.896C269.25 723.65 268.932 723.527 268.494 723.527C267.912 723.527 267.486 723.699 267.217 724.043C266.947 724.387 266.812 724.963 266.812 725.771V729H265.436V722.52H266.514L266.707 723.369H266.777C266.973 723.061 267.25 722.822 267.609 722.654C267.969 722.486 268.367 722.402 268.805 722.402C270.359 722.402 271.137 723.193 271.137 724.775V729ZM275.883 729.117C274.875 729.117 274.086 728.824 273.516 728.238C272.949 727.648 272.666 726.838 272.666 725.807C272.666 724.748 272.93 723.916 273.457 723.311C273.984 722.705 274.709 722.402 275.631 722.402C276.486 722.402 277.162 722.662 277.658 723.182C278.154 723.701 278.402 724.416 278.402 725.326V726.07H274.084C274.104 726.699 274.273 727.184 274.594 727.523C274.914 727.859 275.365 728.027 275.947 728.027C276.33 728.027 276.686 727.992 277.014 727.922C277.346 727.848 277.701 727.727 278.08 727.559V728.678C277.744 728.838 277.404 728.951 277.061 729.018C276.717 729.084 276.324 729.117 275.883 729.117ZM275.631 723.445C275.193 723.445 274.842 723.584 274.576 723.861C274.314 724.139 274.158 724.543 274.107 725.074H277.049C277.041 724.539 276.912 724.135 276.662 723.861C276.412 723.584 276.068 723.445 275.631 723.445Z" fill="white"/>

  </g>

  <path d="M0.25 216.821C0.25 212.955 3.384 209.821 7.25 209.821V279.821C3.384 279.821 0.25 276.687 0.25 272.821V216.821Z" fill="#121214"/>

  <path d="M0.25 331.821C0.25 327.955 3.384 324.821 7.25 324.821V464.821C3.384 464.821 0.25 461.687 0.25 457.821V331.821Z" fill="#121214"/>

  <path d="M58.1428 26.7857H58.1427C45.8149 26.7857 35.8213 36.7793 35.8213 49.1071V49.1072C35.8213 61.435 45.8149 71.4286 58.1427 71.4286H58.1428C70.4706 71.4286 80.4642 61.435 80.4642 49.1072V49.1071C80.4642 36.7793 70.4706 26.7857 58.1428 26.7857Z" fill="#181818"/>

  <g filter="url(#filter1_i_3_32)">

    <path d="M76.9876 48.7857C76.9876 38.2002 68.4064 29.619 57.821 29.619C47.2355 29.619 38.6543 38.2002 38.6543 48.7857C38.6543 59.3711 47.2355 67.9523 57.821 67.9523C68.4064 67.9523 76.9876 59.3711 76.9876 48.7857Z" fill="#161616"/>

    <path d="M72.8213 48.7857C72.8213 40.5014 66.1056 33.7857 57.8213 33.7857C49.537 33.7857 42.8213 40.5014 42.8213 48.7857C42.8213 57.07 49.537 63.7857 57.8213 63.7857C66.1056 63.7857 72.8213 57.07 72.8213 48.7857Z" fill="#060606"/>

    <path d="M58.238 56.2857C62.6102 56.2857 66.1546 52.7413 66.1546 48.369C66.1546 43.9967 62.6102 40.4523 58.238 40.4523C53.8657 40.4523 50.3213 43.9967 50.3213 48.369C50.3213 52.7413 53.8657 56.2857 58.238 56.2857Z" fill="black"/>

    <g opacity="0.3" filter="url(#filter2_f_3_32)">

      <path d="M49.4883 46.2857C53.6304 46.2857 56.9883 42.9278 56.9883 38.7857C56.9883 34.6436 53.6304 31.2857 49.4883 31.2857C45.3461 31.2857 41.9883 34.6436 41.9883 38.7857C41.9883 42.9278 45.3461 46.2857 49.4883 46.2857Z" fill="white"/>

    </g>

    <g opacity="0.3" filter="url(#filter3_f_3_32)">

      <path d="M66.155 62.9524C68.9165 62.9524 71.155 60.7138 71.155 57.9524C71.155 55.191 68.9165 52.9524 66.155 52.9524C63.3936 52.9524 61.155 55.191 61.155 57.9524C61.155 60.7138 63.3936 62.9524 66.155 62.9524Z" fill="white"/>

    </g>

  </g>

  <g opacity="0.8">

    <path d="M197.01 294.525H193.15C193.15 294.374 193.15 294.236 193.15 294.099C193.15 290.751 193.162 287.404 193.139 284.056C193.135 283.496 193.053 282.913 192.878 282.382C192.409 280.958 191.304 280.299 189.865 280.168C188.237 280.021 186.729 280.421 185.336 281.273C185.098 281.418 185.036 281.55 185.089 281.846C185.217 282.575 185.335 283.317 185.34 284.055C185.366 287.457 185.352 290.859 185.351 294.262C185.351 294.337 185.343 294.412 185.338 294.513H181.478C181.478 294.385 181.478 294.258 181.478 294.13C181.478 290.87 181.485 287.61 181.471 284.351C181.47 283.84 181.433 283.318 181.317 282.823C180.99 281.423 180.101 280.513 178.678 280.259C176.878 279.937 175.156 280.189 173.591 281.211C173.321 281.387 173.169 281.578 173.265 281.907C173.28 281.958 173.269 282.016 173.269 282.071C173.277 286.118 173.285 290.166 173.293 294.213C173.293 294.309 173.284 294.405 173.278 294.52H169.437C169.432 294.408 169.421 294.294 169.421 294.179C169.42 289.365 169.418 284.552 169.429 279.739C169.429 279.567 169.519 279.35 169.643 279.233C170.793 278.146 172.189 277.495 173.693 277.06C175.982 276.397 178.282 276.335 180.582 277.011C181.379 277.245 182.121 277.602 182.774 278.116C182.963 278.265 183.09 278.253 183.291 278.142C185.972 276.675 188.816 276.159 191.822 276.813C194.607 277.419 196.416 279.368 196.856 282.176C196.951 282.778 197.001 283.393 197.004 284.002C197.018 287.361 197.01 290.72 197.01 294.078C197.01 294.218 197.01 294.357 197.01 294.525Z" fill="white" fill-opacity="0.3"/>

    <path d="M143.691 287.157C143.691 289.585 143.704 292.014 143.687 294.443C143.674 296.24 143.168 297.872 141.907 299.212C140.918 300.263 139.693 300.942 138.315 301.316C134.877 302.251 131.488 302.106 128.179 300.744C127.525 300.475 126.942 300.076 126.502 299.505C125.617 298.355 126.106 296.851 127.456 296.602C128.097 296.483 128.699 296.647 129.258 296.971C130.099 297.459 130.988 297.832 131.938 298.043C133.703 298.435 135.453 298.42 137.158 297.759C138.819 297.115 139.625 295.914 139.627 294.15C139.631 291.109 139.636 288.068 139.644 285.027C139.647 283.955 139.652 282.883 139.678 281.812C139.685 281.537 139.584 281.366 139.372 281.213C138.644 280.685 137.818 280.406 136.942 280.261C135.517 280.025 134.111 280.092 132.757 280.621C130.942 281.332 129.91 282.691 129.595 284.583C129.373 285.914 129.464 287.227 130.099 288.449C130.936 290.064 132.309 290.846 134.113 290.937C134.528 290.958 134.951 290.982 135.353 291.076C136.142 291.261 136.589 291.809 136.626 292.55C136.67 293.433 136.294 294.108 135.491 294.337C134.954 294.489 134.366 294.542 133.804 294.52C131.779 294.441 129.941 293.819 128.404 292.465C126.779 291.034 125.952 289.19 125.699 287.076C125.497 285.391 125.635 283.732 126.247 282.137C127.205 279.645 129.01 277.998 131.54 277.201C135.042 276.097 138.481 276.286 141.766 278.007C142.362 278.319 142.875 278.787 143.426 279.184C143.629 279.329 143.699 279.515 143.698 279.772C143.687 282.234 143.691 284.695 143.691 287.157Z" fill="white" fill-opacity="0.3"/>

    <path d="M246.792 294.511V268.825H247.161C248.173 268.825 249.186 268.825 250.198 268.825C250.649 268.825 250.649 268.825 250.649 269.26C250.649 273.91 250.649 278.56 250.649 283.211V283.717C250.856 283.557 250.986 283.466 251.104 283.362C253.453 281.298 255.802 279.234 258.144 277.163C258.354 276.976 258.563 276.892 258.848 276.894C260.301 276.908 261.753 276.901 263.206 276.901C263.322 276.901 263.437 276.901 263.552 276.901C263.561 276.926 263.569 276.95 263.578 276.975C260.426 279.711 257.274 282.447 254.09 285.21C257.288 288.306 260.47 291.385 263.694 294.506C263.564 294.521 263.486 294.538 263.408 294.538C261.844 294.54 260.282 294.545 258.72 294.531C258.568 294.529 258.384 294.439 258.271 294.331C255.806 291.974 253.348 289.608 250.888 287.245C250.842 287.201 250.787 287.166 250.677 287.08V294.511" fill="white" fill-opacity="0.3"/>

    <path d="M152.24 283.947H161.686C161.484 282.79 161.09 281.754 160.221 280.955C159.312 280.118 158.205 279.871 156.997 279.886C155.007 279.91 153.355 280.997 152.607 282.833C152.465 283.183 152.369 283.551 152.24 283.947ZM165.559 286.864H152.097C152.249 287.433 152.341 287.972 152.537 288.47C153.259 290.3 154.709 291.225 156.592 291.513C158.955 291.873 160.997 291.169 162.726 289.541C162.765 289.504 162.807 289.47 162.878 289.408C163.52 290.426 164.152 291.429 164.794 292.447C163.85 293.237 162.826 293.847 161.683 294.234C159.188 295.078 156.652 295.216 154.141 294.379C150.943 293.314 149.059 291.039 148.415 287.771C147.97 285.517 148.135 283.301 149.193 281.219C150.503 278.642 152.662 277.186 155.487 276.691C157.309 276.372 159.11 276.491 160.822 277.24C163.314 278.331 164.74 280.295 165.362 282.88C165.674 284.178 165.707 285.495 165.559 286.864Z" fill="white" fill-opacity="0.3"/>

    <path d="M212.913 286.653C212.758 286.661 212.659 286.662 212.561 286.672C211.019 286.822 209.476 286.962 207.936 287.128C207.058 287.222 206.194 287.392 205.449 287.912C204.25 288.749 204.248 290.396 205.471 291.195C205.839 291.436 206.275 291.622 206.705 291.708C208.731 292.117 210.725 291.861 212.7 291.345C212.902 291.293 212.917 291.176 212.916 291.009C212.911 289.904 212.913 288.799 212.913 287.695V286.653ZM212.884 283.634C213.089 281.885 212.178 280.572 210.485 280.158C208.925 279.776 207.375 279.913 205.869 280.402C204.81 280.746 203.787 281.204 202.711 281.626C202.272 280.676 201.801 279.656 201.317 278.609C201.416 278.542 201.5 278.478 201.591 278.425C204.2 276.903 207.026 276.366 210.02 276.598C211.324 276.699 212.584 276.969 213.749 277.589C215.563 278.557 216.505 280.101 216.732 282.102C216.785 282.568 216.793 283.04 216.793 283.509C216.799 286.616 216.793 289.723 216.802 292.831C216.803 293.093 216.734 293.235 216.482 293.349C214.846 294.091 213.117 294.487 211.347 294.725C209.751 294.94 208.149 294.983 206.545 294.799C205.258 294.651 204.009 294.371 202.888 293.687C201.494 292.838 200.804 291.575 200.697 289.972C200.548 287.72 201.65 286.234 203.611 285.284C205.074 284.576 206.646 284.276 208.248 284.103C209.788 283.938 211.329 283.791 212.884 283.634Z" fill="white" fill-opacity="0.3"/>

    <path d="M231.731 290.07C232.243 291.112 232.738 292.12 233.242 293.147C232.259 293.821 231.222 294.325 230.083 294.62C228.764 294.961 227.433 295.009 226.097 294.755C223.65 294.289 222.216 292.781 221.705 290.399C221.541 289.636 221.461 288.84 221.457 288.059C221.437 282.709 221.447 277.36 221.447 272.01C221.447 271.892 221.447 271.775 221.447 271.642H225.308V276.891H232.101V280.4H225.32V280.784C225.32 283.137 225.309 285.489 225.329 287.841C225.334 288.349 225.392 288.873 225.529 289.361C225.889 290.641 226.917 291.329 228.252 291.275C229.406 291.227 230.428 290.793 231.416 290.249C231.511 290.196 231.605 290.141 231.731 290.07Z" fill="white" fill-opacity="0.3"/>

    <path d="M240.685 276.916V294.521H236.846C236.841 294.405 236.831 294.29 236.831 294.175C236.83 288.542 236.833 282.909 236.824 277.276C236.823 276.974 236.905 276.888 237.209 276.893C238.254 276.911 239.299 276.9 240.344 276.901C240.451 276.901 240.559 276.91 240.685 276.916Z" fill="white" fill-opacity="0.3"/>

    <path d="M236.066 271.18C236.065 269.615 237.198 268.464 238.746 268.459C240.287 268.454 241.492 269.648 241.489 271.18C241.487 272.706 240.312 273.851 238.747 273.851C237.191 273.852 236.068 272.733 236.066 271.18Z" fill="white" fill-opacity="0.3"/>

  </g>

  <defs>

    <filter id="filter0_ii_3_32" x="5.18164" y="0" width="386.571" height="824" filterUnits="userSpaceOnUse" color-interpolation-filters="sRGB">

      <feFlood flood-opacity="0" result="BackgroundImageFix"/>

      <feBlend mode="normal" in="SourceGraphic" in2="BackgroundImageFix" result="shape"/>

      <feColorMatrix in="SourceAlpha" type="matrix" values="0 0 0 0 0 0 0 0 0 0 0 0 0 0 0 0 0 0 127 0" result="hardAlpha"/>

      <feOffset dy="24"/>

      <feGaussianBlur stdDeviation="22.5"/>

      <feComposite in2="hardAlpha" operator="arithmetic" k2="-1" k3="1"/>

      <feColorMatrix type="matrix" values="0 0 0 0 0 0 0 0 0 0 0 0 0 0 0 0 0 0 0.25 0"/>

      <feBlend mode="normal" in2="shape" result="effect1_innerShadow_3_32"/>

      <feColorMatrix in="SourceAlpha" type="matrix" values="0 0 0 0 0 0 0 0 0 0 0 0 0 0 0 0 0 0 127 0" result="hardAlpha"/>

      <feOffset dx="8" dy="8"/>

      <feGaussianBlur stdDeviation="8"/>

      <feComposite in2="hardAlpha" operator="arithmetic" k2="-1" k3="1"/>

      <feColorMatrix type="matrix" values="0 0 0 0 1 0 0 0 0 1 0 0 0 0 1 0 0 0 0.25 0"/>

      <feBlend mode="normal" in2="effect1_innerShadow_3_32" result="effect2_innerShadow_3_32"/>

    </filter>

    <filter id="filter1_i_3_32" x="38.6543" y="29.619" width="38.3333" height="42.3333" filterUnits="userSpaceOnUse" color-interpolation-filters="sRGB">

      <feFlood flood-opacity="0" result="BackgroundImageFix"/>

      <feBlend mode="normal" in="SourceGraphic" in2="BackgroundImageFix" result="shape"/>

      <feColorMatrix in="SourceAlpha" type="matrix" values="0 0 0 0 0 0 0 0 0 0 0 0 0 0 0 0 0 0 127 0" result="hardAlpha"/>

      <feOffset dy="4"/>

      <feGaussianBlur stdDeviation="2"/>

      <feComposite in2="hardAlpha" operator="arithmetic" k2="-1" k3="1"/>

      <feColorMatrix type="matrix" values="0 0 0 0 0 0 0 0 0 0 0 0 0 0 0 0 0 0 0.25 0"/>

      <feBlend mode="normal" in2="shape" result="effect1_innerShadow_3_32"/>

    </filter>

    <filter id="filter2_f_3_32" x="31.1549" y="20.4524" width="36.6667" height="36.6667" filterUnits="userSpaceOnUse" color-interpolation-filters="sRGB">

      <feFlood flood-opacity="0" result="BackgroundImageFix"/>

      <feBlend mode="normal" in="SourceGraphic" in2="BackgroundImageFix" result="shape"/>

      <feGaussianBlur stdDeviation="5.41667" result="effect1_foregroundBlur_3_32"/>

    </filter>

    <filter id="filter3_f_3_32" x="50.3217" y="42.1191" width="31.6667" height="31.6667" filterUnits="userSpaceOnUse" color-interpolation-filters="sRGB">

      <feFlood flood-opacity="0" result="BackgroundImageFix"/>

      <feBlend mode="normal" in="SourceGraphic" in2="BackgroundImageFix" result="shape"/>

      <feGaussianBlur stdDeviation="5.41667" result="effect1_foregroundBlur_3_32"/>

    </filter>

  </defs>

</svg>
